Coordinates
version=1
nRows=6
nColumns=36
inDegrees=yes

Units are S.I. units (second, meters, Newtons, ...)
If the header above contains a line with 'inDegrees', this indicates whether rotational values are in degrees (yes) or radians (no).

endheader
time	pelvis_tilt	pelvis_list	pelvis_rotation	pelvis_tx	pelvis_ty	pelvis_tz	hip_flexion_r	hip_adduction_r	hip_rotation_r	knee_angle_r	knee_angle_r_beta	ankle_angle_r	subtalar_angle_r	mtp_angle_r	hip_flexion_l	hip_adduction_l	hip_rotation_l	knee_angle_l	knee_angle_l_beta	ankle_angle_l	subtalar_angle_l	mtp_angle_l	lumbar_extension	lumbar_bending	lumbar_rotation	arm_flex_r	arm_add_r	arm_rot_r	elbow_flex_r	pro_sup_r	arm_flex_l	arm_add_l	arm_rot_l	elbow_flex_l	pro_sup_l
      0.00000000	      4.78274365	      2.46496006	     13.22609339	      0.00231434	      1.31160832	      0.09360215	     -4.89518104	     -5.28923869	      1.86874605	      6.01684062	      0.10501368	      1.54545095	    -13.38249219	     -6.24343253	     -0.56612573	     -0.15188977	      4.19993763	     14.00248445	      0.24438946	     10.16542645	     -6.20226781	     -6.24343253	    -16.63197188	     -1.56729862	     -0.43528221	      7.10032496	     -3.77118359	      9.50713280	     35.23506911	     83.78927330	      8.54541585	     -4.48667447	      3.47806835	     33.68121542	     79.80987644
      0.01666670	      2.80346713	      1.54392095	     12.51614624	      0.00520603	      1.30819759	      0.09404332	     -2.34709506	     -4.87328257	      3.35022989	      6.47029481	      0.11292795	      2.24996656	    -12.81484349	     -6.69047865	      1.21946749	     -0.25034433	      5.08806324	     13.31381312	      0.23236987	      9.84321511	     -6.32375160	     -6.69047865	    -13.34749991	     -1.00720290	      0.23047923	      6.42912390	     -3.65689907	      7.69808885	     35.58114509	     80.34073728	      7.75068838	     -3.12283584	      0.19971344	     33.59123939	     76.30901290
      0.03333330	      2.02562706	      1.69623364	     12.04333174	      0.00623220	      1.30732689	      0.09540454	     -1.78619104	     -5.23357975	      3.33405952	      5.98276380	      0.10441893	      2.36885189	    -13.06413017	     -7.00828705	      1.33563161	     -0.02505459	      4.81915870	     12.13787588	      0.21184590	      9.76167763	     -5.94241814	     -7.00828705	    -12.54850413	     -1.64487597	      0.59461456	      6.37097749	     -3.22447889	      6.10931845	     36.32790217	     85.42493304	      7.48055495	     -3.30991730	      0.87967743	     35.21056220	     78.91364172
      0.05000000	      1.90809292	      2.00065240	     11.65264991	     -0.00088121	      1.30490543	      0.09939120	     -1.26265970	     -5.54477878	      3.57326465	      6.07737686	      0.10607024	      2.76170316	    -13.48102685	     -7.02898929	      1.06744834	      0.24070271	      4.88715703	     11.23996787	      0.19617445	      9.70057094	     -6.37237212	     -7.02898929	    -13.01247769	     -2.31132114	      0.94542183	      6.79329527	     -3.32041869	      7.49770993	     37.02614434	     85.37780548	      8.04078458	     -3.96525954	      2.55157332	     37.25833573	     79.34881671
      0.06666670	      1.62644854	      2.04326392	     11.35158554	     -0.00082399	      1.30474803	      0.10001947	     -0.64680511	     -5.57614028	      3.86294684	      6.18676437	      0.10797941	      2.82700140	    -14.04648955	     -7.11903316	      1.33317969	      0.30761566	      4.96401324	     11.00119964	      0.19200716	      9.53572661	     -6.71549265	     -7.11903316	    -12.97433263	     -2.55902599	      1.12871331	      7.13999336	     -3.58284277	     10.25655887	     37.45942765	     83.02002234	      8.84065245	     -4.29036314	      5.13062152	     38.74248142	     78.46819062
      0.08333330	      1.28513807	      2.11215663	     10.77504678	     -0.00748773	      1.30448366	      0.10378697	      0.39006394	     -5.60246613	      4.29694505	      6.61359276	      0.11542897	      3.03591566	    -14.30455965	     -7.14600107	      2.05444958	      0.42379800	      4.73961660	     11.30494023	      0.19730843	      9.61779613	     -7.14530163	     -7.14600107	    -13.10001044	     -2.91068001	      1.49957127	      7.87761358	     -3.78559511	     12.57869816	     38.10958825	     82.50423788	      9.88983061	     -4.50425945	      6.83896195	     40.11296606	     79.59107812
